<svg width="32" height="32" viewBox="0 0 32 32" fill="none" xmlns="http://www.w3.org/2000/svg">
<rect width="32" height="32" rx="8" fill="white"/>
<path d="M25 22.5C25 23.881 23.881 25 22.5 25H9.5C8.1195 25 7 23.881 7 22.5V9.5C7 8.119 8.1195 7 9.5 7H22.5C23.881 7 25 8.119 25 9.5V22.5Z" fill="#0288D1"/>
<path d="M10 13.5H12.5V22H10V13.5ZM11.2425 12.5H11.2285C10.4825 12.5 10 11.944 10 11.2495C10 10.54 10.4975 10 11.257 10C12.0175 10 12.486 10.54 12.5 11.2495C12.5 11.9435 12.0175 12.5 11.2425 12.5ZM22 22H19.5V17.4505C19.5 16.3515 18.8875 15.6015 17.904 15.6015C17.1535 15.6015 16.7475 16.1075 16.5505 16.5965C16.4785 16.7715 16.5 17.2555 16.5 17.5V22H14V13.5H16.5V14.808C16.8605 14.25 17.425 13.5 18.869 13.5C20.658 13.5 21.9995 14.625 21.9995 17.137L22 22Z" fill="white"/>
</svg>
