<svg width="19" height="16" viewBox="0 0 19 16" fill="none" xmlns="http://www.w3.org/2000/svg">
<g id="Group 1">
<path id="Vector" d="M17.3822 0.88129L16.6463 0.145348C16.4383 -0.0626432 16.0543 -0.0306342 15.8143 0.257311L13.2541 2.80128C12.102 2.30533 10.8382 2.06533 9.5101 2.06533C5.55798 2.08127 2.1342 4.38524 0.486083 7.69745C0.390056 7.90544 0.390056 8.16137 0.486083 8.33736C1.25402 9.90538 2.40609 11.2014 3.84609 12.1774L1.7501 14.3053C1.5101 14.5453 1.47809 14.9293 1.63813 15.1373L2.37408 15.8733C2.58207 16.0812 2.96606 16.0492 3.20606 15.7613L17.254 1.7134C17.558 1.47354 17.59 1.08958 17.382 0.881565L17.3822 0.88129ZM10.3581 5.71318C10.0861 5.64916 9.79813 5.5692 9.52611 5.5692C8.16606 5.5692 7.07818 6.65723 7.07818 8.01714C7.07818 8.28914 7.14219 8.57709 7.22215 8.84911L6.15003 9.90515C5.83008 9.34519 5.65409 8.72109 5.65409 8.01717C5.65409 5.88919 7.36611 4.17717 9.49409 4.17717C10.1982 4.17717 10.8221 4.35315 11.3821 4.67311L10.3581 5.71318Z" fill="#1E1E2F"/>
<path id="Vector_2" d="M18.5327 7.6974C17.9728 6.57735 17.2367 5.56942 16.3248 4.75339L13.3487 7.6974V8.01735C13.3487 10.1453 11.6367 11.8574 9.50872 11.8574H9.18876L7.30078 13.7453C8.00484 13.8893 8.74079 13.9853 9.46079 13.9853C13.4129 13.9853 16.8367 11.6814 18.4848 8.35322C18.6288 8.12915 18.6288 7.90524 18.5328 7.69723L18.5327 7.6974Z" fill="#1E1E2F"/>
</g>
</svg>
