<svg width="85" height="25" viewBox="0 0 85 25" fill="none" xmlns="http://www.w3.org/2000/svg">
<g id="Tribja logo black" clip-path="url(#clip0_1318_14745)">
<path id="Vector" d="M42.1803 8.02063C42.2417 7.92563 42.3063 7.83069 42.3677 7.73569C42.9884 6.79469 43.898 6.3435 45.0319 6.27819C45.671 6.24256 46.301 6.32569 46.9063 6.51569C47.7975 6.79769 48.4796 7.34388 48.9528 8.12456C49.2785 8.65588 49.4875 9.23175 49.6135 9.83731C49.9392 11.4284 49.9515 13.0165 49.5889 14.6016C49.5336 14.8509 49.4506 15.0973 49.3584 15.3378C48.7838 16.8784 47.613 17.7273 45.9722 17.9915C45.3269 18.0954 44.6754 18.1192 44.0148 18.042C43.2035 17.9441 42.506 17.6917 42.088 16.9615C42.0635 16.9169 42.0389 16.8932 41.9928 16.9229C41.9651 16.9407 41.9283 16.9704 41.9252 16.9971C41.9129 17.1337 41.9098 17.2732 41.9068 17.4098C41.8945 17.8461 41.8945 17.852 41.4765 17.852C39.9217 17.855 38.3669 17.855 36.812 17.852C36.5907 17.852 36.5385 17.8104 36.5231 17.6413C36.5108 17.4839 36.5631 17.4157 36.7136 17.4068H36.7751C36.9779 17.3949 37.2268 17.4543 37.3681 17.3593C37.5648 17.2286 37.4511 16.9556 37.4511 16.7478C37.4573 11.5501 37.4573 6.35238 37.4542 1.15471C37.4542 0.940988 37.5433 0.6857 37.402 0.52244C37.2514 0.344336 36.981 0.474946 36.7628 0.451198C36.56 0.430419 36.4832 0.338399 36.5354 0.142484C36.5569 0.0593682 36.603 0.00296841 36.7014 0.00296841C36.7843 0.00296841 36.8642 0 36.9472 0H41.5503C41.6517 0 41.7562 0 41.8576 0.00593682C41.9744 0.0118736 42.0481 0.0712419 42.0543 0.18701C42.0635 0.344336 42.0635 0.501661 42.0635 0.661956V7.99988C42.1004 7.99988 42.1403 8.00875 42.1803 8.02063ZM45.1118 12.1081C45.0872 11.2324 45.0718 10.3449 45.0319 9.45738C45.0134 9.08331 44.9581 8.70931 44.8936 8.34125C44.8598 8.15125 44.783 7.95831 44.6877 7.78913C44.4511 7.36163 44.0117 7.20731 43.5415 7.37056C43.2865 7.45663 43.0775 7.614 42.8993 7.80988C42.5552 8.18981 42.3462 8.63213 42.214 9.116C42.0911 9.56125 42.0666 10.0124 42.0666 10.4666C42.0604 11.9479 42.0635 13.4291 42.0666 14.9074C42.0666 15.0854 42.0758 15.2636 42.0911 15.4387C42.128 15.8573 42.254 16.2491 42.463 16.6171C42.5705 16.8101 42.7057 16.9853 42.8901 17.1129C43.4155 17.4839 44.2637 17.573 44.6662 16.6914C44.7245 16.5667 44.7676 16.4331 44.8014 16.2996C44.9397 15.783 45.0134 15.2546 45.0319 14.7203C45.0626 13.8595 45.0841 12.9898 45.1118 12.1081Z" fill="#1E1E2F"/>
<path id="Vector_2" d="M9.90691 1.7602V17.2553C10.2203 17.38 10.5491 17.2998 10.8718 17.3206C11.0992 17.3355 11.1914 17.4423 11.1483 17.6679C11.1268 17.7748 11.0654 17.843 10.9425 17.843C10.841 17.843 10.7366 17.846 10.6351 17.846H4.37267C4.27127 17.846 4.16679 17.849 4.06539 17.843C3.88102 17.8312 3.83185 17.7718 3.838 17.5729C3.84107 17.38 3.88716 17.3295 4.08997 17.3236C4.39726 17.3177 4.70147 17.3206 4.98725 17.3206C5.01797 17.279 5.03026 17.2642 5.04256 17.2464C5.05178 17.2315 5.07021 17.2137 5.07021 17.1959C5.07328 12.1734 5.07636 7.15084 5.07943 2.12829V1.78692C4.29892 1.62069 3.56451 1.79582 2.93765 2.27671C2.59656 2.5409 2.34152 2.87336 2.12334 3.23254C1.72694 3.88262 1.41966 4.56832 1.14311 5.27183C0.955658 5.75272 0.786653 6.23954 0.605352 6.7204C0.525458 6.93115 0.359524 6.99947 0.116769 6.94009C0.0522385 6.92522 0.0122914 6.88072 0.00614571 6.8184C0 6.75903 0 6.69965 0 6.64028C0.0645301 4.96015 0.125987 3.28003 0.190517 1.60288C0.19359 1.52273 0.199736 1.44555 0.212027 1.36837C0.227391 1.25557 0.30114 1.19324 0.414835 1.1873C0.55926 1.18137 0.700614 1.18434 0.845032 1.18434H14.1075C14.2304 1.18434 14.3533 1.18137 14.4762 1.1873C14.7036 1.19917 14.7466 1.23777 14.7589 1.4782C14.7927 2.20844 14.8204 2.93866 14.8511 3.67186C14.8941 4.67815 14.9371 5.68741 14.9771 6.69372C14.9863 6.89853 14.9371 6.94603 14.7405 6.95197C14.4762 6.96084 14.4394 6.93709 14.341 6.68778C14.0737 6.00503 13.8217 5.31636 13.5421 4.63659C13.2932 4.03104 13.0012 3.44329 12.6233 2.90007C12.2423 2.35685 11.7352 1.9769 11.0715 1.81067C10.6936 1.71568 10.3125 1.66819 9.90691 1.7602Z" fill="#1E1E2F"/>
<path id="Vector_3" d="M65.5477 14.8687V7.63471C65.5477 7.47734 65.5445 7.31709 65.5477 7.15971C65.5477 7.00834 65.462 6.9549 65.3172 6.9579C65.1548 6.96084 64.9886 6.96084 64.8255 6.9549C64.6567 6.94896 64.595 6.8629 64.629 6.6729C64.6416 6.59871 64.6599 6.51265 64.7707 6.51265C64.8532 6.51265 64.9332 6.50671 65.0163 6.50671H69.6806C69.7826 6.50671 69.8864 6.50965 69.9878 6.51559C70.0772 6.52153 70.1421 6.56903 70.1477 6.66103C70.1572 6.75903 70.1603 6.85696 70.1603 6.9579C70.1603 10.4368 70.1692 13.9129 70.1477 17.3918C70.1421 18.698 69.9878 19.9922 69.5735 21.2478C69.4042 21.7584 69.1894 22.2481 68.9124 22.7083C68.1751 23.9342 67.0506 24.617 65.6308 24.8722C64.6964 25.0385 63.7595 25.0444 62.8253 24.8781C62.0848 24.7446 61.4179 24.4715 60.9079 23.9135C60.2656 23.2129 60.1181 22.4085 60.407 21.5357C60.6559 20.7877 61.2428 20.39 62.0233 20.2504C62.3675 20.1881 62.7177 20.197 63.0619 20.2534C63.8086 20.3751 64.3772 20.9925 64.4294 21.7257C64.4754 22.355 64.2821 22.8923 63.7935 23.3227C63.6733 23.4296 63.5442 23.5305 63.434 23.6433C63.1356 23.9461 63.225 24.3379 63.621 24.4953C64.3004 24.7624 65.0257 24.4566 65.2776 23.7947C65.4249 23.3999 65.4709 22.9843 65.4954 22.5717C65.5326 21.9216 65.554 21.2686 65.5571 20.6155C65.554 18.7009 65.5477 16.7833 65.5477 14.8687Z" fill="#1E1E2F"/>
<path id="Vector_4" d="M57.5954 16.4865C57.4756 16.6854 57.3895 16.8427 57.2943 16.9941C56.9593 17.5344 56.4646 17.8639 55.8316 17.9856C54.8913 18.1666 53.9541 18.1221 53.0383 17.8579C52.009 17.5611 51.3759 16.8962 51.1947 15.8513C51.1025 15.317 51.1148 14.7856 51.2715 14.2662C51.4528 13.6666 51.84 13.2212 52.4146 12.9363C52.7803 12.7552 53.1674 12.6365 53.5669 12.5415C54.5901 12.3011 55.6319 12.2744 56.6766 12.2476C56.7996 12.2447 56.9225 12.2476 57.0454 12.2476C57.5093 12.2417 57.5124 12.2417 57.5155 11.7876C57.5155 11.0157 57.5247 10.2439 57.5032 9.47511C57.4879 8.96161 57.4356 8.45105 57.3803 7.93749C57.3526 7.68224 57.2881 7.43286 57.1714 7.19836C56.987 6.82436 56.6859 6.61655 56.2525 6.62549C55.7917 6.63436 55.4106 6.80655 55.1986 7.21618C55.0357 7.52786 55.1279 7.83655 55.3092 8.11561C55.4075 8.26405 55.5304 8.40355 55.6688 8.51636C56.2218 8.97049 56.1727 9.89961 55.7363 10.4042C55.2539 10.9623 54.627 11.1939 53.8957 11.1879C53.6714 11.1849 53.444 11.1523 53.2289 11.0989C52.3593 10.8881 51.8031 10.2232 51.7877 9.32968C51.7693 8.29961 52.1964 7.49224 53.1521 6.98168C53.7881 6.6403 54.4857 6.47999 55.1955 6.39393C55.9453 6.30193 56.7012 6.23957 57.4602 6.27518C58.0133 6.29893 58.5603 6.35536 59.1011 6.47999C60.9786 6.91043 61.8851 8.06218 62.0633 9.80461C62.1033 10.1964 62.1002 10.5942 62.1033 10.9891C62.1063 12.4702 62.1063 13.9545 62.1033 15.4357C62.1033 15.7147 62.1217 15.9878 62.1862 16.2579C62.22 16.3975 62.2784 16.5192 62.3707 16.6261C62.5765 16.8694 62.9514 16.8872 63.1848 16.6676C63.305 16.5548 63.3844 16.4182 63.4492 16.2728C63.4832 16.1986 63.5355 16.1362 63.6242 16.1214C63.7042 16.1096 63.7873 16.0977 63.8547 16.1541C63.9101 16.1986 63.9007 16.2609 63.8824 16.3144C63.6211 17.2138 63.0248 17.7837 62.0756 17.9767C61.1169 18.1696 60.1582 18.1132 59.2209 17.849C58.5726 17.665 58.0379 17.3117 57.749 16.6854C57.7214 16.6379 57.6784 16.5964 57.5954 16.4865ZM57.5002 12.6721C56.652 12.6484 56.2587 12.8977 56.0067 13.5864C55.9606 13.7141 55.9299 13.8506 55.9023 13.9871C55.7609 14.7114 55.8101 15.4416 55.8623 16.1719C55.8746 16.347 55.8961 16.5281 55.9453 16.6973C56.0682 17.1217 56.5199 17.2376 56.8579 16.9407C56.9962 16.819 57.0915 16.6706 57.1806 16.5102C57.3864 16.1362 57.4848 15.7296 57.4971 15.317C57.5155 14.4502 57.5002 13.5834 57.5002 12.6721Z" fill="#1E1E2F"/>
<path id="Vector_5" d="M78.7244 16.5457C78.635 16.5635 78.6048 16.6407 78.5739 16.706C78.159 17.558 77.4462 17.9617 76.4936 18.0507C75.7286 18.122 74.9787 18.0715 74.2439 17.8785C73.0086 17.552 72.3267 16.709 72.265 15.4682C72.2468 15.112 72.2593 14.7617 72.3481 14.4085C72.5232 13.7079 72.9475 13.2063 73.6112 12.8946C74.1489 12.6423 74.7269 12.5147 75.3105 12.4167C76.1618 12.2772 77.0219 12.2623 77.8794 12.2445C78.7521 12.2297 78.6293 12.3276 78.6325 11.5202C78.635 10.4338 78.6539 9.34434 78.5336 8.2609C78.4971 7.94621 78.4543 7.63159 78.3435 7.33478C78.1067 6.69059 77.5168 6.45315 76.8594 6.72028C76.2506 6.96965 76.051 7.53365 76.3954 8.07984C76.4905 8.22821 76.6164 8.36778 76.7518 8.48353C77.3663 9.00896 77.2926 9.95584 76.7455 10.508C76.2449 11.0126 75.6241 11.2085 74.9139 11.1818C74.7728 11.1759 74.628 11.1492 74.4901 11.1254C73.5406 10.9562 72.923 10.2943 72.8921 9.36515C72.8581 8.3084 73.2976 7.48909 74.2779 6.96965C74.8988 6.64015 75.575 6.47984 76.2632 6.39671C77.3814 6.26315 78.5034 6.19785 79.6279 6.36703C80.1562 6.44721 80.6693 6.57184 81.1522 6.79453C82.0526 7.20415 82.6482 7.86909 82.9523 8.78628C83.1494 9.37703 83.2048 9.98259 83.2048 10.6V14.5747C83.2048 14.9309 83.208 15.2871 83.2048 15.6433C83.2048 15.863 83.2294 16.0797 83.2999 16.2875C83.337 16.3973 83.3799 16.5131 83.4504 16.6081C83.6563 16.8871 84.0649 16.9138 84.3016 16.6585C84.4093 16.5428 84.483 16.3973 84.5598 16.2608C84.6183 16.1628 84.6983 16.1272 84.8085 16.1242C84.9288 16.1183 85.0238 16.1955 84.9961 16.2905C84.738 17.2136 84.1354 17.8013 83.1557 17.9913C82.3013 18.1576 81.4469 18.119 80.5988 17.929C79.8029 17.7509 79.1576 17.3798 78.8106 16.6258C78.8012 16.5873 78.7552 16.5695 78.7244 16.5457ZM78.5739 12.6749C77.79 12.6423 77.3757 12.8975 77.1232 13.5743C77.0836 13.6842 77.0496 13.8 77.0313 13.9157C76.8808 14.8003 76.9054 15.6849 77.0345 16.5695C77.0433 16.6288 77.0527 16.6882 77.0741 16.7417C77.2063 17.0978 77.6087 17.2195 77.9159 16.9821C78.0268 16.896 78.1162 16.7832 78.1961 16.6704C78.3775 16.4032 78.4908 16.1093 78.5399 15.7918C78.703 14.7706 78.6381 13.7465 78.6048 12.7224C78.6048 12.7076 78.5859 12.6927 78.5739 12.6749Z" fill="#1E1E2F"/>
<path id="Vector_6" d="M16.9454 17.3829V7.01421C16.675 6.90734 16.4046 6.98752 16.1434 6.94596C16.0512 6.93108 16.0082 6.86877 16.0082 6.77971C16.0082 6.68177 15.9959 6.57196 16.1158 6.53333C16.1895 6.50958 16.2755 6.50958 16.3554 6.50958C17.9717 6.50958 19.5881 6.50665 21.2044 6.50958C21.4994 6.50958 21.5271 6.53927 21.5332 6.80346C21.5393 7.17746 21.5363 7.55446 21.5363 7.92852V8.3619C21.7421 8.29658 21.7513 8.14815 21.8128 8.03833C22.4735 6.83908 23.5305 6.28996 24.9133 6.26915C25.2237 6.26621 25.5279 6.32552 25.8198 6.41165C26.7785 6.69658 27.3808 7.45352 27.433 8.43015C27.4577 8.86652 27.4454 9.2999 27.3101 9.7214C27.0766 10.4457 26.6034 10.894 25.8137 11.0394C25.3804 11.1166 24.9594 11.1076 24.5385 10.9978C23.5644 10.7425 23.0696 9.83127 23.4261 8.91102C23.5244 8.65577 23.6903 8.42127 23.8224 8.17783C23.9147 8.00271 24.016 7.83052 24.0868 7.64652C24.1512 7.47433 24.0407 7.28434 23.8593 7.21609C23.6565 7.14184 23.4568 7.16558 23.2694 7.26358C23.0143 7.40015 22.8053 7.58715 22.621 7.80083C22.1262 8.37671 21.8281 9.04165 21.6745 9.76596C21.5885 10.1726 21.5393 10.5852 21.5393 11.0008C21.5424 12.9956 21.5424 14.9933 21.5424 16.9881C21.5424 17.0682 21.5455 17.1454 21.5485 17.2255C21.5547 17.3473 21.6315 17.3948 21.7483 17.3977C21.9511 17.4007 22.157 17.4007 22.3598 17.4155C22.4551 17.4215 22.4858 17.4986 22.4888 17.5847C22.4919 17.6886 22.4765 17.7895 22.3628 17.8281C22.2891 17.8519 22.2 17.846 22.1201 17.846H16.4108C16.3278 17.846 16.2448 17.846 16.1649 17.8341C16.042 17.8133 16.0174 17.7183 16.0174 17.6115C16.0143 17.5016 16.042 17.4155 16.1741 17.4096C16.4138 17.3977 16.6566 17.3918 16.9454 17.3829Z" fill="#1E1E2F"/>
<path id="Vector_7" d="M29.4652 17.3533V7.01432C29.1947 6.91345 28.9243 6.98763 28.6631 6.94907C28.571 6.9342 28.528 6.87188 28.528 6.78282C28.528 6.68782 28.5126 6.57501 28.6355 6.53645C28.7092 6.5127 28.7953 6.5127 28.8752 6.5127H33.7211C33.7825 6.5127 33.844 6.5127 33.9054 6.52157C33.9976 6.53345 34.0468 6.59282 34.053 6.67895C34.0591 6.85701 34.0622 7.03513 34.0622 7.21026C34.0622 10.3894 34.0621 13.5716 34.0652 16.7508C34.0652 16.9437 33.9884 17.1723 34.1144 17.3236C34.2527 17.4899 34.4954 17.3741 34.6921 17.3978C34.7535 17.4068 34.815 17.4038 34.8765 17.4097C35.0086 17.4216 35.0271 17.5136 35.0271 17.6175C35.0271 17.7214 34.9932 17.8164 34.8703 17.8342C34.7689 17.8491 34.6675 17.8461 34.563 17.8461H28.9827C28.8813 17.8461 28.7768 17.8491 28.6785 17.8313C28.5556 17.8075 28.5402 17.7066 28.5402 17.6026C28.5372 17.4899 28.5771 17.4186 28.7031 17.4038C28.9397 17.38 29.1886 17.4394 29.4652 17.3533Z" fill="#1E1E2F"/>
<path id="Vector_8" d="M67.8155 5.17689C66.5374 5.17095 65.1515 4.19138 65.1761 2.53798C65.1975 1.10127 66.3806 -0.0118878 67.859 0.00295432C69.678 0.0207647 70.5538 1.48122 70.5324 2.60922C70.5078 4.04593 69.3058 5.1947 67.8155 5.17689Z" fill="#5937CC"/>
<path id="Vector_9" d="M29.1319 2.58545C29.0674 1.43667 30.0446 -3.4129e-05 31.8176 0.00293428C33.3756 0.00590269 34.4633 1.21998 34.4726 2.5617C34.4817 4.00138 33.2926 5.165 31.8083 5.1739C30.3026 5.18874 29.0827 3.95982 29.1319 2.58545Z" fill="#5937CC"/>
</g>
<defs>
<clipPath id="clip0_1318_14745">
<rect width="85" height="25" fill="white"/>
</clipPath>
</defs>
</svg>
